<mxfile host="app.diagrams.net" modified="2023-09-29T06:53:47.943Z" agent="Mozilla/5.0 (Windows NT 10.0; Win64; x64) AppleWebKit/537.36 (KHTML, like Gecko) Chrome/117.0.0.0 Safari/537.36 Edg/117.0.2045.43" etag="r-cfNSy28HJ9Acdnha1k" version="22.0.0" type="device">
  <diagram name="Page-1" id="c4acf3e9-155e-7222-9cf6-157b1a14988f">
    <mxGraphModel dx="758" dy="389" grid="1" gridSize="10" guides="1" tooltips="1" connect="1" arrows="1" fold="1" page="1" pageScale="1" pageWidth="850" pageHeight="1100" background="none" math="0" shadow="0">
      <root>
        <mxCell id="0" />
        <mxCell id="1" parent="0" />
        <mxCell id="17acba5748e5396b-20" value="Application" style="swimlane;html=1;fontStyle=0;childLayout=stackLayout;horizontal=1;startSize=26;fillColor=none;horizontalStack=0;resizeParent=1;resizeLast=0;collapsible=1;marginBottom=0;swimlaneFillColor=#ffffff;rounded=0;shadow=0;comic=0;labelBackgroundColor=none;strokeWidth=1;fontFamily=Verdana;fontSize=10;align=center;" parent="1" vertex="1">
          <mxGeometry x="680" y="10" width="160" height="58" as="geometry" />
        </mxCell>
        <mxCell id="17acba5748e5396b-24" value="- main(String[] args) : void" style="text;html=1;strokeColor=none;fillColor=none;align=left;verticalAlign=top;spacingLeft=4;spacingRight=4;whiteSpace=wrap;overflow=hidden;rotatable=0;points=[[0,0.5],[1,0.5]];portConstraint=eastwest;" parent="17acba5748e5396b-20" vertex="1">
          <mxGeometry y="26" width="160" height="26" as="geometry" />
        </mxCell>
        <mxCell id="5d2195bd80daf111-18" value="&lt;p style=&quot;margin:0px;margin-top:4px;text-align:center;&quot;&gt;&lt;i&gt;&amp;lt;&amp;lt;Interface&amp;gt;&amp;gt;&lt;/i&gt;&lt;br&gt;&lt;b&gt;List&lt;/b&gt;&lt;/p&gt;&lt;hr size=&quot;1&quot;&gt;&lt;p style=&quot;margin:0px;margin-left:4px;&quot;&gt;&lt;span style=&quot;background-color: initial;&quot;&gt;+ add(Any): void&lt;/span&gt;&lt;br&gt;&lt;/p&gt;&lt;p style=&quot;margin:0px;margin-left:4px;&quot;&gt;+ set(Any, int): void&lt;/p&gt;&lt;p style=&quot;margin:0px;margin-left:4px;&quot;&gt;+ remove(int): void&lt;/p&gt;&lt;p style=&quot;margin:0px;margin-left:4px;&quot;&gt;+ size() : int&lt;/p&gt;&lt;p style=&quot;margin:0px;margin-left:4px;&quot;&gt;+ get(int) : Object&lt;/p&gt;&lt;p style=&quot;margin:0px;margin-left:4px;&quot;&gt;&lt;br&gt;&lt;/p&gt;" style="verticalAlign=top;align=left;overflow=fill;fontSize=12;fontFamily=Helvetica;html=1;rounded=0;shadow=0;comic=0;labelBackgroundColor=none;strokeWidth=1" parent="1" vertex="1">
          <mxGeometry x="10" y="10" width="190" height="123" as="geometry" />
        </mxCell>
        <mxCell id="RaPE5VgBwtmhGTyBTuI4-1" value="ArrayList" style="swimlane;fontStyle=1;align=center;verticalAlign=top;childLayout=stackLayout;horizontal=1;startSize=26;horizontalStack=0;resizeParent=1;resizeParentMax=0;resizeLast=0;collapsible=1;marginBottom=0;whiteSpace=wrap;html=1;" parent="1" vertex="1">
          <mxGeometry x="10" y="620" width="190" height="230" as="geometry" />
        </mxCell>
        <mxCell id="RaPE5VgBwtmhGTyBTuI4-2" value="- index: int&lt;br&gt;- arr: Object[]" style="text;strokeColor=none;fillColor=none;align=left;verticalAlign=top;spacingLeft=4;spacingRight=4;overflow=hidden;rotatable=0;points=[[0,0.5],[1,0.5]];portConstraint=eastwest;whiteSpace=wrap;html=1;" parent="RaPE5VgBwtmhGTyBTuI4-1" vertex="1">
          <mxGeometry y="26" width="190" height="34" as="geometry" />
        </mxCell>
        <mxCell id="RaPE5VgBwtmhGTyBTuI4-3" value="" style="line;strokeWidth=1;fillColor=none;align=left;verticalAlign=middle;spacingTop=-1;spacingLeft=3;spacingRight=3;rotatable=0;labelPosition=right;points=[];portConstraint=eastwest;strokeColor=inherit;" parent="RaPE5VgBwtmhGTyBTuI4-1" vertex="1">
          <mxGeometry y="60" width="190" height="8" as="geometry" />
        </mxCell>
        <mxCell id="RaPE5VgBwtmhGTyBTuI4-4" value="- stretchingArr(Object[]): Object[]&lt;br&gt;- shrinkingArr(Object[]): Object[]&lt;br&gt;+ ArrayList()&lt;br&gt;+ remove(int): void&lt;br&gt;+ clear(): void&lt;br&gt;+ size(): int&lt;br&gt;+ add(Object); void&lt;br&gt;+ add(Object, int): void&lt;br&gt;+ set(Object,int): void&lt;br&gt;+ get(int): Object" style="text;strokeColor=none;fillColor=none;align=left;verticalAlign=top;spacingLeft=4;spacingRight=4;overflow=hidden;rotatable=0;points=[[0,0.5],[1,0.5]];portConstraint=eastwest;whiteSpace=wrap;html=1;" parent="RaPE5VgBwtmhGTyBTuI4-1" vertex="1">
          <mxGeometry y="68" width="190" height="162" as="geometry" />
        </mxCell>
        <mxCell id="RaPE5VgBwtmhGTyBTuI4-6" value="" style="endArrow=block;dashed=1;endFill=0;endSize=12;html=1;rounded=0;exitX=0.5;exitY=0;exitDx=0;exitDy=0;entryX=0.5;entryY=1;entryDx=0;entryDy=0;" parent="1" source="RaPE5VgBwtmhGTyBTuI4-1" target="5d2195bd80daf111-18" edge="1">
          <mxGeometry width="160" relative="1" as="geometry">
            <mxPoint x="90" y="200" as="sourcePoint" />
            <mxPoint x="250" y="200" as="targetPoint" />
            <Array as="points">
              <mxPoint x="105" y="600" />
              <mxPoint x="210" y="600" />
              <mxPoint x="210" y="170" />
              <mxPoint x="160" y="170" />
              <mxPoint x="105" y="170" />
            </Array>
          </mxGeometry>
        </mxCell>
        <mxCell id="RaPE5VgBwtmhGTyBTuI4-7" value="LinkedList" style="swimlane;fontStyle=1;align=center;verticalAlign=top;childLayout=stackLayout;horizontal=1;startSize=26;horizontalStack=0;resizeParent=1;resizeParentMax=0;resizeLast=0;collapsible=1;marginBottom=0;whiteSpace=wrap;html=1;" parent="1" vertex="1">
          <mxGeometry x="10" y="180" width="190" height="200" as="geometry" />
        </mxCell>
        <mxCell id="RaPE5VgBwtmhGTyBTuI4-8" value="- front: ListNode&amp;lt;Object&amp;gt;" style="text;strokeColor=none;fillColor=none;align=left;verticalAlign=top;spacingLeft=4;spacingRight=4;overflow=hidden;rotatable=0;points=[[0,0.5],[1,0.5]];portConstraint=eastwest;whiteSpace=wrap;html=1;" parent="RaPE5VgBwtmhGTyBTuI4-7" vertex="1">
          <mxGeometry y="26" width="190" height="24" as="geometry" />
        </mxCell>
        <mxCell id="RaPE5VgBwtmhGTyBTuI4-9" value="" style="line;strokeWidth=1;fillColor=none;align=left;verticalAlign=middle;spacingTop=-1;spacingLeft=3;spacingRight=3;rotatable=0;labelPosition=right;points=[];portConstraint=eastwest;strokeColor=inherit;" parent="RaPE5VgBwtmhGTyBTuI4-7" vertex="1">
          <mxGeometry y="50" width="190" height="8" as="geometry" />
        </mxCell>
        <mxCell id="RaPE5VgBwtmhGTyBTuI4-10" value="+ LinkedList()&lt;br&gt;+ remove(int): void&lt;br&gt;+ remove(Object): void&lt;br&gt;+ isEmpty(): boolean&lt;br&gt;+ size(): int&lt;br&gt;+ add(Object); void&lt;br&gt;+ contains(Object): boolean&lt;br&gt;+ set(Object,int): void&lt;br&gt;+ get(int): Object" style="text;strokeColor=none;fillColor=none;align=left;verticalAlign=top;spacingLeft=4;spacingRight=4;overflow=hidden;rotatable=0;points=[[0,0.5],[1,0.5]];portConstraint=eastwest;whiteSpace=wrap;html=1;" parent="RaPE5VgBwtmhGTyBTuI4-7" vertex="1">
          <mxGeometry y="58" width="190" height="142" as="geometry" />
        </mxCell>
        <mxCell id="RaPE5VgBwtmhGTyBTuI4-14" value="ListNode" style="swimlane;fontStyle=1;align=center;verticalAlign=top;childLayout=stackLayout;horizontal=1;startSize=26;horizontalStack=0;resizeParent=1;resizeParentMax=0;resizeLast=0;collapsible=1;marginBottom=0;whiteSpace=wrap;html=1;" parent="1" vertex="1">
          <mxGeometry x="10" y="420" width="190" height="170" as="geometry" />
        </mxCell>
        <mxCell id="RaPE5VgBwtmhGTyBTuI4-15" value="+ i: any&lt;br&gt;+ next: ListNode&amp;lt;Any&amp;gt;" style="text;strokeColor=none;fillColor=none;align=left;verticalAlign=top;spacingLeft=4;spacingRight=4;overflow=hidden;rotatable=0;points=[[0,0.5],[1,0.5]];portConstraint=eastwest;whiteSpace=wrap;html=1;" parent="RaPE5VgBwtmhGTyBTuI4-14" vertex="1">
          <mxGeometry y="26" width="190" height="34" as="geometry" />
        </mxCell>
        <mxCell id="RaPE5VgBwtmhGTyBTuI4-16" value="" style="line;strokeWidth=1;fillColor=none;align=left;verticalAlign=middle;spacingTop=-1;spacingLeft=3;spacingRight=3;rotatable=0;labelPosition=right;points=[];portConstraint=eastwest;strokeColor=inherit;" parent="RaPE5VgBwtmhGTyBTuI4-14" vertex="1">
          <mxGeometry y="60" width="190" height="8" as="geometry" />
        </mxCell>
        <mxCell id="RaPE5VgBwtmhGTyBTuI4-17" value="+ ListNode(Any)&lt;br&gt;+ ListNode(Any, ListNode&amp;lt;Any&amp;gt;)&lt;br&gt;+ getItem(): Any&lt;br&gt;+ getNext(): ListNode&amp;lt;Any&amp;gt;&lt;br&gt;+ setItem(Any): void&lt;br&gt;+ setItem(ListNode&amp;lt;Any&amp;gt;): void" style="text;strokeColor=none;fillColor=none;align=left;verticalAlign=top;spacingLeft=4;spacingRight=4;overflow=hidden;rotatable=0;points=[[0,0.5],[1,0.5]];portConstraint=eastwest;whiteSpace=wrap;html=1;" parent="RaPE5VgBwtmhGTyBTuI4-14" vertex="1">
          <mxGeometry y="68" width="190" height="102" as="geometry" />
        </mxCell>
        <mxCell id="RaPE5VgBwtmhGTyBTuI4-18" value="" style="endArrow=block;dashed=1;endFill=0;endSize=12;html=1;rounded=0;exitX=0.5;exitY=0;exitDx=0;exitDy=0;entryX=0.5;entryY=1;entryDx=0;entryDy=0;" parent="1" source="RaPE5VgBwtmhGTyBTuI4-7" target="5d2195bd80daf111-18" edge="1">
          <mxGeometry width="160" relative="1" as="geometry">
            <mxPoint x="250" y="260" as="sourcePoint" />
            <mxPoint x="410" y="260" as="targetPoint" />
          </mxGeometry>
        </mxCell>
        <mxCell id="RaPE5VgBwtmhGTyBTuI4-20" value="CreditCard" style="swimlane;fontStyle=1;align=center;verticalAlign=top;childLayout=stackLayout;horizontal=1;startSize=26;horizontalStack=0;resizeParent=1;resizeParentMax=0;resizeLast=0;collapsible=1;marginBottom=0;whiteSpace=wrap;html=1;" parent="1" vertex="1">
          <mxGeometry x="260" y="930" width="220" height="160" as="geometry" />
        </mxCell>
        <mxCell id="RaPE5VgBwtmhGTyBTuI4-21" value="- type: CardType&lt;br&gt;- number: String&lt;br&gt;- df: DecimalFormat" style="text;strokeColor=none;fillColor=none;align=left;verticalAlign=top;spacingLeft=4;spacingRight=4;overflow=hidden;rotatable=0;points=[[0,0.5],[1,0.5]];portConstraint=eastwest;whiteSpace=wrap;html=1;" parent="RaPE5VgBwtmhGTyBTuI4-20" vertex="1">
          <mxGeometry y="26" width="220" height="54" as="geometry" />
        </mxCell>
        <mxCell id="RaPE5VgBwtmhGTyBTuI4-22" value="" style="line;strokeWidth=1;fillColor=none;align=left;verticalAlign=middle;spacingTop=-1;spacingLeft=3;spacingRight=3;rotatable=0;labelPosition=right;points=[];portConstraint=eastwest;strokeColor=inherit;" parent="RaPE5VgBwtmhGTyBTuI4-20" vertex="1">
          <mxGeometry y="80" width="220" height="8" as="geometry" />
        </mxCell>
        <mxCell id="RaPE5VgBwtmhGTyBTuI4-23" value="+ CreditCard(double, CardType, String)&lt;br&gt;+ isValid(): boolean&lt;br&gt;+ getFormattedCardNumber(): String&lt;br&gt;+ log(): String" style="text;strokeColor=none;fillColor=none;align=left;verticalAlign=top;spacingLeft=4;spacingRight=4;overflow=hidden;rotatable=0;points=[[0,0.5],[1,0.5]];portConstraint=eastwest;whiteSpace=wrap;html=1;" parent="RaPE5VgBwtmhGTyBTuI4-20" vertex="1">
          <mxGeometry y="88" width="220" height="72" as="geometry" />
        </mxCell>
        <mxCell id="RaPE5VgBwtmhGTyBTuI4-24" value="&lt;p style=&quot;margin:0px;margin-top:4px;text-align:center;&quot;&gt;&lt;i&gt;&amp;lt;&amp;lt;Interface&amp;gt;&amp;gt;&lt;/i&gt;&lt;br&gt;&lt;b&gt;CardNumber&lt;/b&gt;&lt;/p&gt;&lt;hr size=&quot;1&quot;&gt;&lt;p style=&quot;margin:0px;margin-left:4px;&quot;&gt;&lt;span style=&quot;background-color: initial;&quot;&gt;+ getFormattedCardNumber(): String&lt;/span&gt;&lt;/p&gt;&lt;p style=&quot;margin:0px;margin-left:4px;&quot;&gt;&lt;br&gt;&lt;/p&gt;" style="verticalAlign=top;align=left;overflow=fill;fontSize=12;fontFamily=Helvetica;html=1;rounded=0;shadow=0;comic=0;labelBackgroundColor=none;strokeWidth=1" parent="1" vertex="1">
          <mxGeometry x="10" y="860" width="210" height="70" as="geometry" />
        </mxCell>
        <mxCell id="RaPE5VgBwtmhGTyBTuI4-25" value="Payment" style="swimlane;fontStyle=1;align=center;verticalAlign=top;childLayout=stackLayout;horizontal=1;startSize=26;horizontalStack=0;resizeParent=1;resizeParentMax=0;resizeLast=0;collapsible=1;marginBottom=0;whiteSpace=wrap;html=1;" parent="1" vertex="1">
          <mxGeometry x="235" y="400" width="190" height="170" as="geometry" />
        </mxCell>
        <mxCell id="RaPE5VgBwtmhGTyBTuI4-26" value="+ amount: int&lt;br&gt;+ method: Object&lt;br&gt;- df: DecimalFormat" style="text;strokeColor=none;fillColor=none;align=left;verticalAlign=top;spacingLeft=4;spacingRight=4;overflow=hidden;rotatable=0;points=[[0,0.5],[1,0.5]];portConstraint=eastwest;whiteSpace=wrap;html=1;" parent="RaPE5VgBwtmhGTyBTuI4-25" vertex="1">
          <mxGeometry y="26" width="190" height="54" as="geometry" />
        </mxCell>
        <mxCell id="RaPE5VgBwtmhGTyBTuI4-27" value="" style="line;strokeWidth=1;fillColor=none;align=left;verticalAlign=middle;spacingTop=-1;spacingLeft=3;spacingRight=3;rotatable=0;labelPosition=right;points=[];portConstraint=eastwest;strokeColor=inherit;" parent="RaPE5VgBwtmhGTyBTuI4-25" vertex="1">
          <mxGeometry y="80" width="190" height="8" as="geometry" />
        </mxCell>
        <mxCell id="RaPE5VgBwtmhGTyBTuI4-28" value="+ Payment(String, double)&lt;br&gt;+ getMethod(): String&lt;br&gt;+ getAmount(): double&lt;br&gt;+ log(): String&lt;br&gt;+ isValid(): boolean" style="text;strokeColor=none;fillColor=none;align=left;verticalAlign=top;spacingLeft=4;spacingRight=4;overflow=hidden;rotatable=0;points=[[0,0.5],[1,0.5]];portConstraint=eastwest;whiteSpace=wrap;html=1;" parent="RaPE5VgBwtmhGTyBTuI4-25" vertex="1">
          <mxGeometry y="88" width="190" height="82" as="geometry" />
        </mxCell>
        <mxCell id="4tmEksAu3eblcwW09Ca4-2" value="&lt;i style=&quot;border-color: var(--border-color);&quot;&gt;&amp;lt;&amp;lt;Enumeration&amp;gt;&amp;gt;&lt;/i&gt;&lt;b&gt;&lt;br&gt;CardType&lt;/b&gt;" style="swimlane;fontStyle=0;childLayout=stackLayout;horizontal=1;startSize=30;fillColor=none;horizontalStack=0;resizeParent=1;resizeParentMax=0;resizeLast=0;collapsible=1;marginBottom=0;whiteSpace=wrap;html=1;" parent="1" vertex="1">
          <mxGeometry x="10" y="970" width="210" height="100" as="geometry" />
        </mxCell>
        <mxCell id="4tmEksAu3eblcwW09Ca4-3" value="+ VISA: static final&lt;br&gt;+ AMERICANEXPRESS: static final&lt;br&gt;+ JCB: static final&lt;br&gt;+ MASTERCARD: static final" style="text;strokeColor=none;fillColor=none;align=left;verticalAlign=top;spacingLeft=4;spacingRight=4;overflow=hidden;rotatable=0;points=[[0,0.5],[1,0.5]];portConstraint=eastwest;whiteSpace=wrap;html=1;" parent="4tmEksAu3eblcwW09Ca4-2" vertex="1">
          <mxGeometry y="30" width="210" height="70" as="geometry" />
        </mxCell>
        <mxCell id="otK1PDrM1sK-og6R-N7w-4" value="Cash" style="swimlane;fontStyle=1;align=center;verticalAlign=top;childLayout=stackLayout;horizontal=1;startSize=26;horizontalStack=0;resizeParent=1;resizeParentMax=0;resizeLast=0;collapsible=1;marginBottom=0;whiteSpace=wrap;html=1;" parent="1" vertex="1">
          <mxGeometry x="490" y="950" width="150" height="140" as="geometry" />
        </mxCell>
        <mxCell id="otK1PDrM1sK-og6R-N7w-5" value="- cash: double&lt;br&gt;- df: DecimalFormat" style="text;strokeColor=none;fillColor=none;align=left;verticalAlign=top;spacingLeft=4;spacingRight=4;overflow=hidden;rotatable=0;points=[[0,0.5],[1,0.5]];portConstraint=eastwest;whiteSpace=wrap;html=1;" parent="otK1PDrM1sK-og6R-N7w-4" vertex="1">
          <mxGeometry y="26" width="150" height="34" as="geometry" />
        </mxCell>
        <mxCell id="otK1PDrM1sK-og6R-N7w-6" value="" style="line;strokeWidth=1;fillColor=none;align=left;verticalAlign=middle;spacingTop=-1;spacingLeft=3;spacingRight=3;rotatable=0;labelPosition=right;points=[];portConstraint=eastwest;strokeColor=inherit;" parent="otK1PDrM1sK-og6R-N7w-4" vertex="1">
          <mxGeometry y="60" width="150" height="8" as="geometry" />
        </mxCell>
        <mxCell id="otK1PDrM1sK-og6R-N7w-7" value="+ Cash(double, double)&lt;br&gt;+ getChange(): double&lt;br&gt;+ isValid(): boolean&lt;br&gt;+ log(): String" style="text;strokeColor=none;fillColor=none;align=left;verticalAlign=top;spacingLeft=4;spacingRight=4;overflow=hidden;rotatable=0;points=[[0,0.5],[1,0.5]];portConstraint=eastwest;whiteSpace=wrap;html=1;" parent="otK1PDrM1sK-og6R-N7w-4" vertex="1">
          <mxGeometry y="68" width="150" height="72" as="geometry" />
        </mxCell>
        <mxCell id="otK1PDrM1sK-og6R-N7w-8" value="" style="endArrow=diamondThin;endFill=1;endSize=24;html=1;rounded=0;exitX=0.5;exitY=0;exitDx=0;exitDy=0;entryX=0.495;entryY=1.01;entryDx=0;entryDy=0;entryPerimeter=0;" parent="1" source="RaPE5VgBwtmhGTyBTuI4-14" target="RaPE5VgBwtmhGTyBTuI4-10" edge="1">
          <mxGeometry width="160" relative="1" as="geometry">
            <mxPoint x="-60" y="440" as="sourcePoint" />
            <mxPoint x="110" y="410" as="targetPoint" />
          </mxGeometry>
        </mxCell>
        <mxCell id="UO4BrE-vCkBqNIhOrVdw-6" value="StringFormatter" style="swimlane;fontStyle=1;align=center;verticalAlign=top;childLayout=stackLayout;horizontal=1;startSize=26;horizontalStack=0;resizeParent=1;resizeParentMax=0;resizeLast=0;collapsible=1;marginBottom=0;whiteSpace=wrap;html=1;" parent="1" vertex="1">
          <mxGeometry x="680" y="970" width="150" height="100" as="geometry" />
        </mxCell>
        <mxCell id="UO4BrE-vCkBqNIhOrVdw-7" value="- str: String" style="text;strokeColor=none;fillColor=none;align=left;verticalAlign=top;spacingLeft=4;spacingRight=4;overflow=hidden;rotatable=0;points=[[0,0.5],[1,0.5]];portConstraint=eastwest;whiteSpace=wrap;html=1;" parent="UO4BrE-vCkBqNIhOrVdw-6" vertex="1">
          <mxGeometry y="26" width="150" height="26" as="geometry" />
        </mxCell>
        <mxCell id="UO4BrE-vCkBqNIhOrVdw-8" value="" style="line;strokeWidth=1;fillColor=none;align=left;verticalAlign=middle;spacingTop=-1;spacingLeft=3;spacingRight=3;rotatable=0;labelPosition=right;points=[];portConstraint=eastwest;strokeColor=inherit;" parent="UO4BrE-vCkBqNIhOrVdw-6" vertex="1">
          <mxGeometry y="52" width="150" height="8" as="geometry" />
        </mxCell>
        <mxCell id="UO4BrE-vCkBqNIhOrVdw-9" value="+ StringFormatter()&lt;br&gt;+ format(String, int):String" style="text;strokeColor=none;fillColor=none;align=left;verticalAlign=top;spacingLeft=4;spacingRight=4;overflow=hidden;rotatable=0;points=[[0,0.5],[1,0.5]];portConstraint=eastwest;whiteSpace=wrap;html=1;" parent="UO4BrE-vCkBqNIhOrVdw-6" vertex="1">
          <mxGeometry y="60" width="150" height="40" as="geometry" />
        </mxCell>
        <mxCell id="UO4BrE-vCkBqNIhOrVdw-10" value="Item" style="swimlane;fontStyle=1;align=center;verticalAlign=top;childLayout=stackLayout;horizontal=1;startSize=26;horizontalStack=0;resizeParent=1;resizeParentMax=0;resizeLast=0;collapsible=1;marginBottom=0;whiteSpace=wrap;html=1;" parent="1" vertex="1">
          <mxGeometry x="670" y="636" width="160" height="294" as="geometry" />
        </mxCell>
        <mxCell id="UO4BrE-vCkBqNIhOrVdw-11" value="- ID: String&lt;br&gt;- name: String&lt;br&gt;- description: String&lt;br&gt;- price: int&lt;br&gt;- quantity: int&lt;br&gt;- sf: StringFormatter" style="text;strokeColor=none;fillColor=none;align=left;verticalAlign=top;spacingLeft=4;spacingRight=4;overflow=hidden;rotatable=0;points=[[0,0.5],[1,0.5]];portConstraint=eastwest;whiteSpace=wrap;html=1;" parent="UO4BrE-vCkBqNIhOrVdw-10" vertex="1">
          <mxGeometry y="26" width="160" height="100" as="geometry" />
        </mxCell>
        <mxCell id="UO4BrE-vCkBqNIhOrVdw-12" value="" style="line;strokeWidth=1;fillColor=none;align=left;verticalAlign=middle;spacingTop=-1;spacingLeft=3;spacingRight=3;rotatable=0;labelPosition=right;points=[];portConstraint=eastwest;strokeColor=inherit;" parent="UO4BrE-vCkBqNIhOrVdw-10" vertex="1">
          <mxGeometry y="126" width="160" height="8" as="geometry" />
        </mxCell>
        <mxCell id="UO4BrE-vCkBqNIhOrVdw-13" value="+ Item(String, String, String, int, int)&lt;br&gt;+ Item()&lt;br&gt;+ log(): String&lt;br&gt;+ getID(): String&lt;br&gt;+ getName(): String&lt;br&gt;+ getPrice(): int&lt;br&gt;+ getDescription(): String&lt;br&gt;+ getQuantity():&amp;nbsp; int&lt;br&gt;+ addQuantity(int): void" style="text;strokeColor=none;fillColor=none;align=left;verticalAlign=top;spacingLeft=4;spacingRight=4;overflow=hidden;rotatable=0;points=[[0,0.5],[1,0.5]];portConstraint=eastwest;whiteSpace=wrap;html=1;" parent="UO4BrE-vCkBqNIhOrVdw-10" vertex="1">
          <mxGeometry y="134" width="160" height="160" as="geometry" />
        </mxCell>
        <mxCell id="UO4BrE-vCkBqNIhOrVdw-14" value="" style="endArrow=open;startArrow=circlePlus;endFill=0;startFill=0;endSize=8;html=1;rounded=0;" parent="1" edge="1">
          <mxGeometry width="160" relative="1" as="geometry">
            <mxPoint x="350" y="930" as="sourcePoint" />
            <mxPoint x="120" y="1070" as="targetPoint" />
            <Array as="points">
              <mxPoint x="350" y="910" />
              <mxPoint x="240" y="910" />
              <mxPoint x="240" y="1090" />
              <mxPoint x="120" y="1090" />
            </Array>
          </mxGeometry>
        </mxCell>
        <mxCell id="UO4BrE-vCkBqNIhOrVdw-16" value="" style="endArrow=block;dashed=1;endFill=0;endSize=12;html=1;rounded=0;exitX=0.5;exitY=0;exitDx=0;exitDy=0;entryX=0.5;entryY=1;entryDx=0;entryDy=0;" parent="1" source="RaPE5VgBwtmhGTyBTuI4-20" edge="1" target="RaPE5VgBwtmhGTyBTuI4-24">
          <mxGeometry width="160" relative="1" as="geometry">
            <mxPoint x="350" y="950" as="sourcePoint" />
            <mxPoint x="220" y="895" as="targetPoint" />
            <Array as="points">
              <mxPoint x="370" y="895" />
              <mxPoint x="230" y="895" />
              <mxPoint x="230" y="960" />
              <mxPoint x="115" y="960" />
            </Array>
          </mxGeometry>
        </mxCell>
        <mxCell id="NRxRhKkOP4U8dXSc7JXs-1" value="" style="endArrow=diamondThin;endFill=1;endSize=24;html=1;rounded=0;exitX=0.5;exitY=0;exitDx=0;exitDy=0;entryX=0.526;entryY=1.002;entryDx=0;entryDy=0;entryPerimeter=0;" parent="1" source="UO4BrE-vCkBqNIhOrVdw-6" target="UO4BrE-vCkBqNIhOrVdw-13" edge="1">
          <mxGeometry width="160" relative="1" as="geometry">
            <mxPoint x="370" y="800" as="sourcePoint" />
            <mxPoint x="765" y="770" as="targetPoint" />
          </mxGeometry>
        </mxCell>
        <mxCell id="NRxRhKkOP4U8dXSc7JXs-3" value="Product" style="swimlane;fontStyle=1;align=center;verticalAlign=top;childLayout=stackLayout;horizontal=1;startSize=26;horizontalStack=0;resizeParent=1;resizeParentMax=0;resizeLast=0;collapsible=1;marginBottom=0;whiteSpace=wrap;html=1;" parent="1" vertex="1">
          <mxGeometry x="665" y="140" width="180" height="328" as="geometry" />
        </mxCell>
        <mxCell id="NRxRhKkOP4U8dXSc7JXs-4" value="- pageNumber: int&lt;br&gt;- selectedPage: int&lt;br&gt;- lines: ArrayList&amp;lt;String&amp;gt;&lt;br&gt;- allProducts: ArrayList&amp;lt;Item&amp;gt;&lt;br&gt;- filter: ArrayList&amp;lt;Item&amp;gt;&lt;br&gt;- cart: Cart&lt;br&gt;- checkout: Checkout" style="text;strokeColor=none;fillColor=none;align=left;verticalAlign=top;spacingLeft=4;spacingRight=4;overflow=hidden;rotatable=0;points=[[0,0.5],[1,0.5]];portConstraint=eastwest;whiteSpace=wrap;html=1;" parent="NRxRhKkOP4U8dXSc7JXs-3" vertex="1">
          <mxGeometry y="26" width="180" height="114" as="geometry" />
        </mxCell>
        <mxCell id="NRxRhKkOP4U8dXSc7JXs-5" value="" style="line;strokeWidth=1;fillColor=none;align=left;verticalAlign=middle;spacingTop=-1;spacingLeft=3;spacingRight=3;rotatable=0;labelPosition=right;points=[];portConstraint=eastwest;strokeColor=inherit;" parent="NRxRhKkOP4U8dXSc7JXs-3" vertex="1">
          <mxGeometry y="140" width="180" height="8" as="geometry" />
        </mxCell>
        <mxCell id="NRxRhKkOP4U8dXSc7JXs-6" value="+ Product()&lt;br&gt;- StockSummary: void&lt;br&gt;+ addAllProducts(): void&lt;br&gt;+ addProduct(): void&lt;br&gt;+ setProduct(): void&lt;br&gt;+ setProduct(int, Item): void&lt;br&gt;+ clearProduct(): void&lt;br&gt;+ removeProduct(int): void&lt;br&gt;+ getNumberOfProducts(): int&lt;br&gt;+ displayProducts(int, int): void&lt;br&gt;+ filter(): void&lt;br&gt;+ displayfilter(): void" style="text;strokeColor=none;fillColor=none;align=left;verticalAlign=top;spacingLeft=4;spacingRight=4;overflow=hidden;rotatable=0;points=[[0,0.5],[1,0.5]];portConstraint=eastwest;whiteSpace=wrap;html=1;" parent="NRxRhKkOP4U8dXSc7JXs-3" vertex="1">
          <mxGeometry y="148" width="180" height="180" as="geometry" />
        </mxCell>
        <mxCell id="NRxRhKkOP4U8dXSc7JXs-7" value="" style="endArrow=diamondThin;endFill=1;endSize=24;html=1;rounded=0;exitX=0.5;exitY=0;exitDx=0;exitDy=0;entryX=0.472;entryY=0.996;entryDx=0;entryDy=0;entryPerimeter=0;" parent="1" source="UO4BrE-vCkBqNIhOrVdw-10" target="NRxRhKkOP4U8dXSc7JXs-6" edge="1">
          <mxGeometry width="160" relative="1" as="geometry">
            <mxPoint x="820.28" y="479.1" as="sourcePoint" />
            <mxPoint x="750" y="580" as="targetPoint" />
          </mxGeometry>
        </mxCell>
        <mxCell id="NRxRhKkOP4U8dXSc7JXs-8" value="Extends" style="endArrow=block;endSize=16;endFill=0;html=1;rounded=0;entryX=0.289;entryY=1.008;entryDx=0;entryDy=0;entryPerimeter=0;exitX=0.14;exitY=0;exitDx=0;exitDy=0;exitPerimeter=0;" parent="1" source="RaPE5VgBwtmhGTyBTuI4-20" target="RaPE5VgBwtmhGTyBTuI4-28" edge="1">
          <mxGeometry width="160" relative="1" as="geometry">
            <mxPoint x="315" y="930" as="sourcePoint" />
            <mxPoint x="489.9999999999999" y="849.996" as="targetPoint" />
          </mxGeometry>
        </mxCell>
        <mxCell id="NRxRhKkOP4U8dXSc7JXs-9" value="Extends" style="endArrow=block;endSize=16;endFill=0;html=1;rounded=0;entryX=0.759;entryY=0.993;entryDx=0;entryDy=0;exitX=0.534;exitY=-0.006;exitDx=0;exitDy=0;entryPerimeter=0;exitPerimeter=0;" parent="1" source="otK1PDrM1sK-og6R-N7w-4" target="RaPE5VgBwtmhGTyBTuI4-28" edge="1">
          <mxGeometry x="0.3775" width="160" relative="1" as="geometry">
            <mxPoint x="340" y="860" as="sourcePoint" />
            <mxPoint x="500" y="860" as="targetPoint" />
            <Array as="points">
              <mxPoint x="570" y="910" />
              <mxPoint x="380" y="910" />
            </Array>
            <mxPoint as="offset" />
          </mxGeometry>
        </mxCell>
        <mxCell id="NRxRhKkOP4U8dXSc7JXs-10" value="" style="endArrow=diamondThin;endFill=1;endSize=24;html=1;rounded=0;entryX=0.5;entryY=1;entryDx=0;entryDy=0;exitX=0.532;exitY=-0.002;exitDx=0;exitDy=0;exitPerimeter=0;" parent="1" source="NRxRhKkOP4U8dXSc7JXs-3" edge="1" target="17acba5748e5396b-20">
          <mxGeometry width="160" relative="1" as="geometry">
            <mxPoint x="600" y="70" as="sourcePoint" />
            <mxPoint x="750" y="70" as="targetPoint" />
          </mxGeometry>
        </mxCell>
        <mxCell id="NRxRhKkOP4U8dXSc7JXs-11" value="" style="endArrow=diamondThin;endFill=1;endSize=24;html=1;rounded=0;exitX=0.75;exitY=0;exitDx=0;exitDy=0;entryX=0.344;entryY=0.997;entryDx=0;entryDy=0;entryPerimeter=0;" parent="1" source="RaPE5VgBwtmhGTyBTuI4-1" target="NRxRhKkOP4U8dXSc7JXs-6" edge="1">
          <mxGeometry width="160" relative="1" as="geometry">
            <mxPoint x="200" y="626.5" as="sourcePoint" />
            <mxPoint x="720" y="440" as="targetPoint" />
            <Array as="points">
              <mxPoint x="153" y="610" />
              <mxPoint x="240" y="610" />
              <mxPoint x="560" y="610" />
              <mxPoint x="730" y="610" />
            </Array>
          </mxGeometry>
        </mxCell>
        <mxCell id="NRxRhKkOP4U8dXSc7JXs-12" value="Cart" style="swimlane;fontStyle=1;align=center;verticalAlign=top;childLayout=stackLayout;horizontal=1;startSize=26;horizontalStack=0;resizeParent=1;resizeParentMax=0;resizeLast=0;collapsible=1;marginBottom=0;whiteSpace=wrap;html=1;" parent="1" vertex="1">
          <mxGeometry x="460" y="640" width="200" height="220" as="geometry" />
        </mxCell>
        <mxCell id="NRxRhKkOP4U8dXSc7JXs-13" value="- order: LinkedList&amp;lt;Item&amp;gt;&lt;br&gt;- df: DecimalFormat" style="text;strokeColor=none;fillColor=none;align=left;verticalAlign=top;spacingLeft=4;spacingRight=4;overflow=hidden;rotatable=0;points=[[0,0.5],[1,0.5]];portConstraint=eastwest;whiteSpace=wrap;html=1;" parent="NRxRhKkOP4U8dXSc7JXs-12" vertex="1">
          <mxGeometry y="26" width="200" height="34" as="geometry" />
        </mxCell>
        <mxCell id="NRxRhKkOP4U8dXSc7JXs-14" value="" style="line;strokeWidth=1;fillColor=none;align=left;verticalAlign=middle;spacingTop=-1;spacingLeft=3;spacingRight=3;rotatable=0;labelPosition=right;points=[];portConstraint=eastwest;strokeColor=inherit;" parent="NRxRhKkOP4U8dXSc7JXs-12" vertex="1">
          <mxGeometry y="60" width="200" height="8" as="geometry" />
        </mxCell>
        <mxCell id="NRxRhKkOP4U8dXSc7JXs-15" value="+ Cart()&lt;br&gt;+ findItem(String): int&lt;br&gt;+ getProductFromCart(int): Item&lt;br&gt;+ getItemList(): LinkedList&amp;lt;Item&amp;gt;&lt;br&gt;+ add2cart(): void&lt;br&gt;+ removeFromCart(Item, int): void&lt;br&gt;+ numItemsInCart(): int&lt;br&gt;+ getTotalPrice(): int&lt;br&gt;+ reviewCart(): void&lt;br&gt;+ displayCart(): void&lt;br&gt;" style="text;strokeColor=none;fillColor=none;align=left;verticalAlign=top;spacingLeft=4;spacingRight=4;overflow=hidden;rotatable=0;points=[[0,0.5],[1,0.5]];portConstraint=eastwest;whiteSpace=wrap;html=1;" parent="NRxRhKkOP4U8dXSc7JXs-12" vertex="1">
          <mxGeometry y="68" width="200" height="152" as="geometry" />
        </mxCell>
        <mxCell id="NRxRhKkOP4U8dXSc7JXs-16" value="CheckOut" style="swimlane;fontStyle=1;align=center;verticalAlign=top;childLayout=stackLayout;horizontal=1;startSize=26;horizontalStack=0;resizeParent=1;resizeParentMax=0;resizeLast=0;collapsible=1;marginBottom=0;whiteSpace=wrap;html=1;" parent="1" vertex="1">
          <mxGeometry x="290" y="80" width="250" height="290" as="geometry" />
        </mxCell>
        <mxCell id="NRxRhKkOP4U8dXSc7JXs-17" value="- df : DecimalFormat&lt;br&gt;- customerName: String&lt;br&gt;- email: String&lt;br&gt;- Address: String&lt;br&gt;- postalCode: String&lt;br&gt;- nakhonPrathomCode: String[]&lt;br&gt;- c: Cart&lt;br&gt;- cash: Cash&lt;br&gt;- creditcard: CreditCard&lt;br&gt;- sc: Scanner" style="text;strokeColor=none;fillColor=none;align=left;verticalAlign=top;spacingLeft=4;spacingRight=4;overflow=hidden;rotatable=0;points=[[0,0.5],[1,0.5]];portConstraint=eastwest;whiteSpace=wrap;html=1;" parent="NRxRhKkOP4U8dXSc7JXs-16" vertex="1">
          <mxGeometry y="26" width="250" height="150" as="geometry" />
        </mxCell>
        <mxCell id="NRxRhKkOP4U8dXSc7JXs-18" value="" style="line;strokeWidth=1;fillColor=none;align=left;verticalAlign=middle;spacingTop=-1;spacingLeft=3;spacingRight=3;rotatable=0;labelPosition=right;points=[];portConstraint=eastwest;strokeColor=inherit;" parent="NRxRhKkOP4U8dXSc7JXs-16" vertex="1">
          <mxGeometry y="176" width="250" height="8" as="geometry" />
        </mxCell>
        <mxCell id="NRxRhKkOP4U8dXSc7JXs-19" value="+ Checkout()&lt;br&gt;+ Checkout(String,String,String,String,Cart)&lt;br&gt;+ displayInfo(): String&lt;br&gt;- getShippingFee(): int&lt;br&gt;+ paymentInfo(): void&lt;br&gt;+ printReceipt(): void" style="text;strokeColor=none;fillColor=none;align=left;verticalAlign=top;spacingLeft=4;spacingRight=4;overflow=hidden;rotatable=0;points=[[0,0.5],[1,0.5]];portConstraint=eastwest;whiteSpace=wrap;html=1;" parent="NRxRhKkOP4U8dXSc7JXs-16" vertex="1">
          <mxGeometry y="184" width="250" height="106" as="geometry" />
        </mxCell>
        <mxCell id="gmiJSQVACFmna2glLq9t-1" value="" style="endArrow=diamondThin;endFill=1;endSize=24;html=1;rounded=0;entryX=0.197;entryY=0.994;entryDx=0;entryDy=0;entryPerimeter=0;exitX=0.75;exitY=0;exitDx=0;exitDy=0;" edge="1" parent="1" source="NRxRhKkOP4U8dXSc7JXs-12" target="NRxRhKkOP4U8dXSc7JXs-6">
          <mxGeometry width="160" relative="1" as="geometry">
            <mxPoint x="450" y="330" as="sourcePoint" />
            <mxPoint x="530" y="530" as="targetPoint" />
            <Array as="points">
              <mxPoint x="610" y="620" />
              <mxPoint x="700" y="620" />
            </Array>
          </mxGeometry>
        </mxCell>
        <mxCell id="gmiJSQVACFmna2glLq9t-3" value="" style="endArrow=diamondThin;endFill=1;endSize=24;html=1;rounded=0;exitX=0.5;exitY=0;exitDx=0;exitDy=0;entryX=0.806;entryY=1.011;entryDx=0;entryDy=0;entryPerimeter=0;" edge="1" parent="1" source="NRxRhKkOP4U8dXSc7JXs-16" target="NRxRhKkOP4U8dXSc7JXs-6">
          <mxGeometry width="160" relative="1" as="geometry">
            <mxPoint x="370" y="360" as="sourcePoint" />
            <mxPoint x="700" y="610.7692307692307" as="targetPoint" />
            <Array as="points">
              <mxPoint x="415" y="40" />
              <mxPoint x="650" y="40" />
              <mxPoint x="650" y="320" />
              <mxPoint x="650" y="630" />
              <mxPoint x="810" y="630" />
            </Array>
          </mxGeometry>
        </mxCell>
        <mxCell id="gmiJSQVACFmna2glLq9t-4" value="" style="endArrow=diamondThin;endFill=1;endSize=24;html=1;rounded=0;exitX=0.264;exitY=0;exitDx=0;exitDy=0;entryX=0.501;entryY=1.001;entryDx=0;entryDy=0;entryPerimeter=0;exitPerimeter=0;" edge="1" parent="1" source="RaPE5VgBwtmhGTyBTuI4-7" target="NRxRhKkOP4U8dXSc7JXs-15">
          <mxGeometry width="160" relative="1" as="geometry">
            <mxPoint x="440" y="280" as="sourcePoint" />
            <mxPoint x="600" y="280" as="targetPoint" />
            <Array as="points">
              <mxPoint x="60" y="160" />
              <mxPoint x="220" y="160" />
              <mxPoint x="220" y="850" />
              <mxPoint x="250" y="850" />
              <mxPoint x="250" y="870" />
              <mxPoint x="440" y="870" />
              <mxPoint x="440" y="900" />
              <mxPoint x="560" y="900" />
            </Array>
          </mxGeometry>
        </mxCell>
        <mxCell id="gmiJSQVACFmna2glLq9t-7" value="" style="endArrow=diamondThin;endFill=1;endSize=24;html=1;rounded=0;exitX=0.727;exitY=0.001;exitDx=0;exitDy=0;exitPerimeter=0;" edge="1" parent="1" source="RaPE5VgBwtmhGTyBTuI4-20">
          <mxGeometry width="160" relative="1" as="geometry">
            <mxPoint x="220" y="430" as="sourcePoint" />
            <mxPoint x="480" y="370" as="targetPoint" />
            <Array as="points">
              <mxPoint x="420" y="580" />
              <mxPoint x="480" y="580" />
            </Array>
          </mxGeometry>
        </mxCell>
        <mxCell id="gmiJSQVACFmna2glLq9t-8" value="" style="endArrow=diamondThin;endFill=1;endSize=24;html=1;rounded=0;entryX=0.92;entryY=1.005;entryDx=0;entryDy=0;entryPerimeter=0;exitX=0.268;exitY=0.002;exitDx=0;exitDy=0;exitPerimeter=0;" edge="1" parent="1" source="otK1PDrM1sK-og6R-N7w-4" target="NRxRhKkOP4U8dXSc7JXs-19">
          <mxGeometry width="160" relative="1" as="geometry">
            <mxPoint x="400" y="430" as="sourcePoint" />
            <mxPoint x="560" y="430" as="targetPoint" />
            <Array as="points">
              <mxPoint x="530" y="920" />
              <mxPoint x="450" y="920" />
              <mxPoint x="450" y="600" />
              <mxPoint x="520" y="600" />
            </Array>
          </mxGeometry>
        </mxCell>
      </root>
    </mxGraphModel>
  </diagram>
</mxfile>
